<?xml version="1.0" standalone="no"?>
<!DOCTYPE svg PUBLIC "-//W3C//DTD SVG 20010904//EN"
 "http://www.w3.org/TR/2001/REC-SVG-20010904/DTD/svg10.dtd">
<svg version="1.0" xmlns="http://www.w3.org/2000/svg"
 width="225.000000pt" height="225.000000pt" viewBox="0 0 225.000000 225.000000"
 preserveAspectRatio="xMidYMid meet">

<g transform="translate(0.000000,225.000000) scale(0.100000,-0.100000)"
fill="#000000" stroke="none">
<path d="M1010 2234 c-96 -20 -183 -68 -261 -141 -124 -117 -181 -243 -182
-398 -1 -176 76 -335 213 -444 l50 -40 -65 -31 c-186 -89 -349 -266 -424 -460
-48 -123 -61 -224 -61 -462 0 -208 0 -209 25 -233 l24 -25 796 0 796 0 24 25
c25 24 25 25 25 233 0 238 -13 339 -61 462 -75 194 -238 371 -424 460 l-65 31
50 40 c222 176 279 481 134 720 -46 77 -158 180 -236 218 -70 35 -179 61 -248
60 -25 0 -74 -7 -110 -15z m226 -138 c212 -56 341 -259 305 -477 -47 -285
-340 -434 -609 -309 -245 114 -307 466 -118 668 104 111 273 158 422 118z m82
-997 c118 -30 205 -81 303 -179 69 -68 94 -102 128 -170 66 -134 73 -169 78
-402 l5 -208 -707 0 -707 0 5 208 c5 233 12 268 78 402 54 110 178 237 284
292 165 85 345 105 533 57z"/>
</g>
</svg>
